# xmcd CD database file
#
# Track frame offsets:
#	151
#	30221
#	57656
#	79482
#	93339
#	111867
#	131922
#	145543
#	168005
#	194163
#	223884
#
# Disc length: 3100 seconds
#
# Revision: 2
# Processed by: cddbd v1.5.1PL0 Copyright (c) Steve Scherf et al.
# Submitted via: CDex 1.50Beta7
#
DISCID=a00c1a0b
DTITLE=Tommy Smith and Brian Kellog - Symbiosis
DYEAR=2004
DGENRE=Jazz
TTITLE0=Without A Song
TTITLE1=Cherokee
TTITLE2=You've Changed
TTITLE3=Don't Blame Me
TTITLE4=Moonlight In Vermont
TTITLE5=Manhattan
TTITLE6=Skylark
TTITLE7=Honeysuckle Rose
TTITLE8=Pure Imagination
TTITLE9=Bernie's Tune
TTITLE10=You Must Believe In Spring
EXTD=YEAR: 2004
EXTT0=
EXTT1=
EXTT2=
EXTT3=
EXTT4=
EXTT5=
EXTT6=
EXTT7=
EXTT8=
EXTT9=
EXTT10=
PLAYORDER=
